# xmcd
#
# Track frame offsets: 
#        150
#        15728
#        36351
#
# Disc length: 689 seconds
#
# Revision: 2
# Processed by: cddbd v1.5.2PL0 Copyright (c) Steve Scherf et al.
# Submitted via: ExactAudioCopy v0.95b4
#
DISCID=1d02af03
DTITLE=Matt Nathanson - Slow, But Speeding
DYEAR=2007
DGENRE=Indie
TTITLE0=Gone [acoustic]
TTITLE1=Sooner Surrender [acoustic]
TTITLE2=Detroit Waves [acoustic]
EXTD=
EXTT0=
EXTT1=
EXTT2=
PLAYORDER=
